<?xml version="1.0" standalone="no"?>
<!DOCTYPE svg PUBLIC "-//W3C//DTD SVG 20010904//EN"
 "http://www.w3.org/TR/2001/REC-SVG-20010904/DTD/svg10.dtd">
<svg version="1.0" xmlns="http://www.w3.org/2000/svg"
 width="60.000000pt" height="60.000000pt" viewBox="0 0 60.000000 60.000000"
 preserveAspectRatio="xMidYMid meet">

<g transform="translate(0.000000,60.000000) scale(0.100000,-0.100000)"
fill="#000000" stroke="none">
<path d="M57 552 c-15 -16 -17 -49 -17 -254 0 -227 -1 -236 -20 -241 -11 -3
-20 -10 -20 -16 0 -8 90 -11 301 -11 236 0 300 3 297 13 -3 8 -37 13 -111 15
l-107 3 0 99 c0 75 3 100 13 100 22 0 37 -23 37 -57 0 -39 37 -83 70 -83 11 0
29 9 40 20 18 18 20 33 20 150 l0 130 -52 62 c-51 59 -78 80 -78 61 0 -5 15
-27 34 -49 33 -38 33 -41 15 -52 -40 -25 -6 -101 41 -89 19 5 20 1 20 -88 0
-100 -9 -119 -52 -113 -19 2 -24 11 -30 53 -7 51 -27 75 -60 75 -16 0 -18 11
-18 125 0 169 4 165 -173 165 -117 0 -136 -2 -150 -18z m291 -254 l2 -238
-140 0 -140 0 0 240 0 241 138 -3 137 -3 3 -237z m180 104 c3 -16 -2 -22 -16
-22 -24 0 -35 23 -19 39 16 16 31 8 35 -17z"/>
<path d="M90 425 l0 -85 120 0 120 0 0 85 0 85 -120 0 -120 0 0 -85z m220 -5
l0 -60 -100 0 -100 0 0 60 0 60 100 0 100 0 0 -60z"/>
</g>
</svg>
